<mxfile host="Electron" agent="Mozilla/5.0 (Windows NT 10.0; Win64; x64) AppleWebKit/537.36 (KHTML, like Gecko) draw.io/24.7.5 Chrome/126.0.6478.183 Electron/31.3.0 Safari/537.36" version="24.7.5" pages="3">
  <diagram id="qD6z7_NGCg1W0owd7kWK" name="复制案例">
    <mxGraphModel dx="1211" dy="687" grid="1" gridSize="10" guides="1" tooltips="1" connect="1" arrows="1" fold="1" page="1" pageScale="1" pageWidth="827" pageHeight="1169" math="0" shadow="0">
      <root>
        <mxCell id="0" />
        <mxCell id="1" parent="0" />
        <mxCell id="rJSOGuavXnLwfAy1GLt7-1" value="1. 配置文件配置主从关系" style="text;html=1;align=center;verticalAlign=middle;resizable=0;points=[];autosize=1;strokeColor=#d79b00;fillColor=#ffe6cc;fontSize=18;" vertex="1" parent="1">
          <mxGeometry x="10" y="10" width="220" height="40" as="geometry" />
        </mxCell>
        <UserObject label="# Redis配置文件关键项: 都得配置&#xa;1. daemonize yes: 后台运行&#xa;2. bind 127.0.0.1注释掉: 允许远程连接&#xa;3. protected-mode no: 关闭保护模式&#xa;4. port: 指定端口 换端口&#xa;5. dir: 工作目录 myredis不变&#xa;6. pidfile: PID文件名字_端口.pid，会把自己的进程ID写入到这个文件里&#xa;7. logfile: 日志文件 notice&#xa;8. requirepass: 设置密码 &#xa;9. dbfilename: RDB文件名，比如dump端口号.rdp 这样好排查&#xa;9. appendonly yes: 开启AOF&#xa;10. appenddirname&#39;appendonlydir&#39;&#xa;11. appendfilename &quot;appendonly.aof&quot;: AOF文件名，非必须&#xa;&#xa;# 从机复制以上和多配  &#xa;12. masterauth &quot;11111&quot;: 从机连接主机密码 主机不用管&#xa;13. replicaof 主机+端口：当前是从机，需要配置主机" id="rJSOGuavXnLwfAy1GLt7-2">
          <mxCell style="text;whiteSpace=wrap;fontSize=18;" vertex="1" parent="1">
            <mxGeometry x="10" y="60" width="640" height="390" as="geometry" />
          </mxCell>
        </UserObject>
        <mxCell id="rJSOGuavXnLwfAy1GLt7-3" value="2. 启动服务器" style="text;html=1;align=center;verticalAlign=middle;resizable=0;points=[];autosize=1;strokeColor=#d79b00;fillColor=#ffe6cc;fontSize=18;" vertex="1" parent="1">
          <mxGeometry x="10" y="450" width="130" height="40" as="geometry" />
        </mxCell>
        <UserObject label="1. redis-serverr/myredis/redis6380.conf：启动 Redis 服务器，并指定了一个配置文件 myredis/redis6380.conf&#xa;2. redis-cli -a 111111 -p 6380：使用 Redis 客户端（redis-cli）连接到本地 6380 端口的 Redis 实例，并使用密码 111111 进行认证。" id="rJSOGuavXnLwfAy1GLt7-7">
          <mxCell style="text;whiteSpace=wrap;fontSize=18;" vertex="1" parent="1">
            <mxGeometry x="10" y="500" width="670" height="110" as="geometry" />
          </mxCell>
        </UserObject>
        <UserObject label="主从关系查看：&#xa;日志：tail -f 6380.log&#xa;命令查看：info replication&#xa;" id="rJSOGuavXnLwfAy1GLt7-8">
          <mxCell style="text;whiteSpace=wrap;fontSize=18;fillColor=#fff2cc;strokeColor=#d6b656;" vertex="1" parent="1">
            <mxGeometry x="450" y="410" width="230" height="70" as="geometry" />
          </mxCell>
        </UserObject>
        <mxCell id="rJSOGuavXnLwfAy1GLt7-9" value="简介" style="text;html=1;align=center;verticalAlign=middle;resizable=0;points=[];autosize=1;strokeColor=#d79b00;fillColor=#ffe6cc;fontSize=18;" vertex="1" parent="1">
          <mxGeometry x="710" y="3" width="60" height="40" as="geometry" />
        </mxCell>
        <mxCell id="rJSOGuavXnLwfAy1GLt7-10" value="主：可写可读&lt;div&gt;从：只能读&lt;/div&gt;" style="text;html=1;align=center;verticalAlign=middle;resizable=0;points=[];autosize=1;strokeColor=#d6b656;fillColor=#fff2cc;fontSize=18;" vertex="1" parent="1">
          <mxGeometry x="710" y="43" width="130" height="60" as="geometry" />
        </mxCell>
        <mxCell id="rJSOGuavXnLwfAy1GLt7-11" value="slave首次连接时全量复制，之后实时跟随master同步数据。" style="text;whiteSpace=wrap;fontSize=18;fillColor=#fff2cc;strokeColor=#d6b656;" vertex="1" parent="1">
          <mxGeometry x="710" y="130" width="480" height="40" as="geometry" />
        </mxCell>
        <mxCell id="BtPNLJUdzSowBiq9Ggcs-1" value="2. 主从关系命令&#xa;设置主从关系：&#xa;SLAVE0F 192.168.111.185 6379&#xa;查看主从关系：&#xa;info replication&#xa;" style="text;whiteSpace=wrap;fontSize=18;fillColor=#ffe6cc;strokeColor=#d79b00;" vertex="1" parent="1">
          <mxGeometry x="10" y="760" width="330" height="120" as="geometry" />
        </mxCell>
        <mxCell id="BtPNLJUdzSowBiq9Ggcs-2" value="用命令使用的话，2台从机重启后，关系还在吗？&#xa;不在了" style="text;whiteSpace=wrap;fontSize=18;fillColor=#fff2cc;strokeColor=#d6b656;" vertex="1" parent="1">
          <mxGeometry x="10" y="960" width="420" height="50" as="geometry" />
        </mxCell>
        <mxCell id="BtPNLJUdzSowBiq9Ggcs-3" value="1. 命令启动：&#xa;续前面的配置文件&#xa;把配置replicaof 192.168.111.185 6379注释&#xa;也就是取消配置文件的主从关系&#xa;然后启动服务器，前面有" style="text;whiteSpace=wrap;fontSize=18;fillColor=#ffe6cc;strokeColor=#d79b00;" vertex="1" parent="1">
          <mxGeometry x="10" y="620" width="370" height="120" as="geometry" />
        </mxCell>
        <mxCell id="BtPNLJUdzSowBiq9Ggcs-4" value="简介" style="text;whiteSpace=wrap;fontSize=18;fillColor=#ffe6cc;strokeColor=#d79b00;" vertex="1" parent="1">
          <mxGeometry x="10" y="900" width="60" height="40" as="geometry" />
        </mxCell>
        <mxCell id="BtPNLJUdzSowBiq9Ggcs-6" value="主机shutdown后，从机不会上位，主从关系和数据同步可在主机重启后恢复正常。" style="text;whiteSpace=wrap;fontSize=18;fillColor=#fff2cc;strokeColor=#d6b656;" vertex="1" parent="1">
          <mxGeometry x="710" y="190" width="560" height="70" as="geometry" />
        </mxCell>
        <mxCell id="BtPNLJUdzSowBiq9Ggcs-7" value="级联复制（slave 的 slave）可以减轻主库同步压力、并支持更灵活的分布式部署（网络延迟）和高可用（1-&gt;2也不能写-&gt;3也不能写 2挂了 3切换同步1 保证数据不丢失）。" style="text;whiteSpace=wrap;fontSize=18;fillColor=#fff2cc;strokeColor=#d6b656;" vertex="1" parent="1">
          <mxGeometry x="710" y="290" width="560" height="70" as="geometry" />
        </mxCell>
        <mxCell id="BtPNLJUdzSowBiq9Ggcs-8" value="1. 自己做主&#xa;SLAVEOF no one" style="text;whiteSpace=wrap;fontSize=18;fillColor=#ffe6cc;strokeColor=#d79b00;" vertex="1" parent="1">
          <mxGeometry x="10" y="1060" width="180" height="50" as="geometry" />
        </mxCell>
      </root>
    </mxGraphModel>
  </diagram>
  <diagram id="vQ8UEOiq6r95QFdu4yIy" name="原理">
    <mxGraphModel dx="848" dy="481" grid="1" gridSize="10" guides="1" tooltips="1" connect="1" arrows="1" fold="1" page="1" pageScale="1" pageWidth="827" pageHeight="1169" math="0" shadow="0">
      <root>
        <mxCell id="0" />
        <mxCell id="1" parent="0" />
        <mxCell id="2" value="复制原理和工作流程" style="ellipse;whiteSpace=wrap;html=1;fillColor=#FFD700;fontSize=18;fontStyle=1;" vertex="1" parent="1">
          <mxGeometry x="400" y="100" width="220" height="60" as="geometry" />
        </mxCell>
        <mxCell id="3" value="slave启动成功连接到master后，会发送一个sync命令请求主从数据同步。" style="rounded=1;whiteSpace=wrap;html=1;fillColor=#B0E0E6;" vertex="1" parent="1">
          <mxGeometry x="100" y="250" width="300" height="60" as="geometry" />
        </mxCell>
        <mxCell id="4" value="slave首次全新连接master时，会自动执行一次全量同步，slave原有数据会被master的数据完全覆盖。" style="rounded=1;whiteSpace=wrap;html=1;fillColor=#B0E0E6;" vertex="1" parent="1">
          <mxGeometry x="100" y="350" width="300" height="60" as="geometry" />
        </mxCell>
        <mxCell id="5" value="master收到sync命令后，先生成RDB快照并缓存写命令，然后将快照和命令发送给slave完成全量同步。" style="rounded=1;whiteSpace=wrap;html=1;fillColor=#E6E6FA;" vertex="1" parent="1">
          <mxGeometry x="500" y="250" width="380" height="60" as="geometry" />
        </mxCell>
        <mxCell id="6" value="slave服务在接收到数据库文件数据后，将其存盘并加载到内存中，从而完成复制初始化" style="rounded=1;whiteSpace=wrap;html=1;fillColor=#E6E6FA;" vertex="1" parent="1">
          <mxGeometry x="950" y="250" width="350" height="60" as="geometry" />
        </mxCell>
        <mxCell id="7" value="心跳持续，保持通信&lt;br&gt;repl-ping-replica-period 10&lt;div&gt;master发出PING包的周期10秒&lt;br&gt;&lt;/div&gt;" style="rounded=1;whiteSpace=wrap;html=1;fillColor=#F0FFF0;" vertex="1" parent="1">
          <mxGeometry x="100" y="450" width="300" height="60" as="geometry" />
        </mxCell>
        <mxCell id="8" value="进入平稳，增量复制&#xa;Master继续将新的用于修改集群的修改命令自动依次传给slave，完成同步" style="rounded=1;whiteSpace=wrap;html=1;fillColor=#FFFACD;" vertex="1" parent="1">
          <mxGeometry x="500" y="450" width="400" height="60" as="geometry" />
        </mxCell>
        <mxCell id="9" value="从机下线，重连续传&#xa;master会检查backlog上面的offset，master和slave都有一个offset还有一个masterId，offset是保存在backlog中的。Master只会把已经复制的offset后面的数据复制给Slave，类似断点续传" style="rounded=1;whiteSpace=wrap;html=1;fillColor=#FFB6C1;" vertex="1" parent="1">
          <mxGeometry x="500" y="550" width="500" height="80" as="geometry" />
        </mxCell>
        <mxCell id="10" style="edgeStyle=orthogonalEdgeStyle;rounded=1;endArrow=block;html=1;strokeColor=#4682B4;" edge="1" parent="1" source="2" target="3">
          <mxGeometry relative="1" as="geometry" />
        </mxCell>
        <mxCell id="11" style="edgeStyle=orthogonalEdgeStyle;rounded=1;endArrow=block;html=1;strokeColor=#4682B4;" edge="1" parent="1" source="3" target="4">
          <mxGeometry relative="1" as="geometry" />
        </mxCell>
        <mxCell id="12" style="edgeStyle=orthogonalEdgeStyle;rounded=1;endArrow=block;html=1;strokeColor=#4682B4;" edge="1" parent="1" source="4" target="5">
          <mxGeometry relative="1" as="geometry" />
        </mxCell>
        <mxCell id="13" style="edgeStyle=orthogonalEdgeStyle;rounded=1;endArrow=block;html=1;strokeColor=#4682B4;" edge="1" parent="1" source="5" target="6">
          <mxGeometry relative="1" as="geometry" />
        </mxCell>
        <mxCell id="14" style="edgeStyle=orthogonalEdgeStyle;rounded=1;endArrow=block;html=1;strokeColor=#4682B4;" edge="1" parent="1" source="6" target="7">
          <mxGeometry relative="1" as="geometry">
            <Array as="points">
              <mxPoint x="1125" y="430" />
              <mxPoint x="250" y="430" />
            </Array>
          </mxGeometry>
        </mxCell>
        <mxCell id="15" style="edgeStyle=orthogonalEdgeStyle;rounded=1;endArrow=block;html=1;strokeColor=#4682B4;" edge="1" parent="1" source="7" target="8">
          <mxGeometry relative="1" as="geometry" />
        </mxCell>
        <mxCell id="16" style="edgeStyle=orthogonalEdgeStyle;rounded=1;endArrow=block;html=1;strokeColor=#4682B4;" edge="1" parent="1" source="8" target="9">
          <mxGeometry relative="1" as="geometry" />
        </mxCell>
        <mxCell id="17" value="图例：&#xa;蓝色-初始化流程&#xa;紫色-全量复制&#xa;绿色-心跳通信&#xa;黄色-增量复制&#xa;粉色-断点续传" style="rounded=1;whiteSpace=wrap;html=1;fillColor=#FFFFFF;strokeColor=#000000;fontSize=12;" vertex="1" parent="1">
          <mxGeometry x="1100" y="100" width="200" height="120" as="geometry" />
        </mxCell>
      </root>
    </mxGraphModel>
  </diagram>
  <diagram id="4wKTHk0YMzak8yaq-JZ1" name="缺点">
    <mxGraphModel dx="848" dy="481" grid="1" gridSize="10" guides="1" tooltips="1" connect="1" arrows="1" fold="1" page="1" pageScale="1" pageWidth="827" pageHeight="1169" math="0" shadow="0">
      <root>
        <mxCell id="0" />
        <mxCell id="1" parent="0" />
        <mxCell id="_VqX94w8Mhd-UC5lZeeE-1" value="主从同步存在延迟，且系统越繁忙或从机越多，延迟越严重。" style="text;whiteSpace=wrap;fontSize=18;fillColor=#ffe6cc;strokeColor=#d79b00;" vertex="1" parent="1">
          <mxGeometry x="20" y="30" width="520" height="50" as="geometry" />
        </mxCell>
        <mxCell id="_VqX94w8Mhd-UC5lZeeE-2" value="主节点（master）挂了不会自动切换，需要人工干预或部署无人值守安装实现自动切换。" style="text;whiteSpace=wrap;fontSize=18;fillColor=#ffe6cc;strokeColor=#d79b00;" vertex="1" parent="1">
          <mxGeometry x="20" y="90" width="560" height="70" as="geometry" />
        </mxCell>
      </root>
    </mxGraphModel>
  </diagram>
</mxfile>
